<?xml version="1.0" encoding="utf-8" ?>
<svg baseProfile="full" height="410px" version="1.1" width="1215px" xmlns="http://www.w3.org/2000/svg" xmlns:ev="http://www.w3.org/2001/xml-events" xmlns:xlink="http://www.w3.org/1999/xlink"><defs /><g id="shapes" stroke-width="0"><polygon fill="blue" points="40.0,370.2 47.62,370.2 47.62,40.0 40.0,40.0 40.0,370.2" stroke="blue" /><polygon fill="honeydew" points="47.62,370.2 169.54000000000002,370.2 169.54000000000002,248.27999999999997 47.62,248.27999999999997 47.62,370.2" stroke="honeydew" /><polygon fill="cornsilk" points="169.54000000000002,370.2 291.46000000000004,370.2 291.46000000000004,248.27999999999997 169.54000000000002,248.27999999999997 169.54000000000002,370.2" stroke="cornsilk" /><polygon fill="tomato" points="47.62,248.27999999999997 291.46000000000004,248.27999999999997 291.46000000000004,238.12 47.62,238.12 47.62,248.27999999999997" stroke="tomato" /><polygon fill="honeydew" points="47.62,238.12 169.54000000000002,238.12 169.54000000000002,116.2 47.62,116.2 47.62,238.12" stroke="honeydew" /><polygon fill="cornsilk" points="169.54000000000002,238.12 291.46000000000004,238.12 291.46000000000004,116.2 169.54000000000002,116.2 169.54000000000002,238.12" stroke="cornsilk" /><polygon fill="tomato" points="47.62,116.2 291.46000000000004,116.2 291.46000000000004,106.04 47.62,106.04 47.62,116.2" stroke="tomato" /><polygon fill="honeydew" points="47.62,106.04 169.54000000000002,106.04 169.54000000000002,40.0 47.62,40.0 47.62,106.04" stroke="honeydew" /><polygon fill="cornsilk" points="169.54000000000002,106.04 291.46000000000004,106.04 291.46000000000004,40.0 169.54000000000002,40.0 169.54000000000002,106.04" stroke="cornsilk" /><polygon fill="blue" points="291.46000000000004,370.2 299.08000000000004,370.2 299.08000000000004,40.0 291.46000000000004,40.0 291.46000000000004,370.2" stroke="blue" /><polygon fill="honeydew" points="299.08000000000004,370.2 421.00000000000006,370.2 421.00000000000006,248.27999999999997 299.08000000000004,248.27999999999997 299.08000000000004,370.2" stroke="honeydew" /><polygon fill="cornsilk" points="421.00000000000006,370.2 542.9200000000001,370.2 542.9200000000001,248.27999999999997 421.00000000000006,248.27999999999997 421.00000000000006,370.2" stroke="cornsilk" /><polygon fill="tomato" points="299.08000000000004,248.27999999999997 542.9200000000001,248.27999999999997 542.9200000000001,238.12 299.08000000000004,238.12 299.08000000000004,248.27999999999997" stroke="tomato" /><polygon fill="honeydew" points="299.08000000000004,238.12 421.00000000000006,238.12 421.00000000000006,116.2 299.08000000000004,116.2 299.08000000000004,238.12" stroke="honeydew" /><polygon fill="cornsilk" points="421.00000000000006,238.12 542.9200000000001,238.12 542.9200000000001,116.2 421.00000000000006,116.2 421.00000000000006,238.12" stroke="cornsilk" /><polygon fill="tomato" points="299.08000000000004,116.2 542.9200000000001,116.2 542.9200000000001,106.04 299.08000000000004,106.04 299.08000000000004,116.2" stroke="tomato" /><polygon fill="honeydew" points="299.08000000000004,106.04 421.00000000000006,106.04 421.00000000000006,40.0 299.08000000000004,40.0 299.08000000000004,106.04" stroke="honeydew" /><polygon fill="cornsilk" points="421.00000000000006,106.04 542.9200000000001,106.04 542.9200000000001,40.0 421.00000000000006,40.0 421.00000000000006,106.04" stroke="cornsilk" /><polygon fill="blue" points="542.9200000000001,370.2 550.54,370.2 550.54,40.0 542.9200000000001,40.0 542.9200000000001,370.2" stroke="blue" /><polygon fill="tomato" points="550.54,182.23999999999998 916.3,182.23999999999998 916.3,172.07999999999998 550.54,172.07999999999998 550.54,182.23999999999998" stroke="tomato" /><polygon fill="honeydew" points="550.54,172.07999999999998 733.4200000000001,172.07999999999998 733.4200000000001,75.55999999999999 550.54,75.55999999999999 550.54,172.07999999999998" stroke="honeydew" /><polygon fill="cornsilk" points="733.4200000000001,172.07999999999998 916.3,172.07999999999998 916.3,75.55999999999999 733.4200000000001,75.55999999999999 733.4200000000001,172.07999999999998" stroke="cornsilk" /><polygon fill="tomato" points="550.54,75.55999999999999 916.3,75.55999999999999 916.3,65.4 550.54,65.4 550.54,75.55999999999999" stroke="tomato" /><polygon fill="honeydew" points="550.54,65.4 733.4200000000001,65.4 733.4200000000001,40.0 550.54,40.0 550.54,65.4" stroke="honeydew" /><polygon fill="cornsilk" points="733.4200000000001,65.4 916.3,65.4 916.3,40.0 733.4200000000001,40.0 733.4200000000001,65.4" stroke="cornsilk" /><polygon fill="blue" points="916.3,370.2 923.92,370.2 923.92,40.0 916.3,40.0 916.3,370.2" stroke="blue" /><polygon fill="honeydew" points="923.92,370.2 1045.8400000000001,370.2 1045.8400000000001,248.27999999999997 923.92,248.27999999999997 923.92,370.2" stroke="honeydew" /><polygon fill="cornsilk" points="1045.8400000000001,370.2 1167.7600000000002,370.2 1167.7600000000002,248.27999999999997 1045.8400000000001,248.27999999999997 1045.8400000000001,370.2" stroke="cornsilk" /><polygon fill="tomato" points="923.92,248.27999999999997 1167.76,248.27999999999997 1167.76,238.12 923.92,238.12 923.92,248.27999999999997" stroke="tomato" /><polygon fill="honeydew" points="923.92,238.12 1045.8400000000001,238.12 1045.8400000000001,116.2 923.92,116.2 923.92,238.12" stroke="honeydew" /><polygon fill="cornsilk" points="1045.8400000000001,238.12 1167.7600000000002,238.12 1167.7600000000002,116.2 1045.8400000000001,116.2 1045.8400000000001,238.12" stroke="cornsilk" /><polygon fill="tomato" points="923.92,116.2 1167.76,116.2 1167.76,106.04 923.92,106.04 923.92,116.2" stroke="tomato" /><polygon fill="honeydew" points="923.92,106.04 1045.8400000000001,106.04 1045.8400000000001,40.0 923.92,40.0 923.92,106.04" stroke="honeydew" /><polygon fill="cornsilk" points="1045.8400000000001,106.04 1167.7600000000002,106.04 1167.7600000000002,40.0 1045.8400000000001,40.0 1045.8400000000001,106.04" stroke="cornsilk" /><polygon fill="blue" points="1167.76,370.2 1175.3799999999999,370.2 1175.3799999999999,40.0 1167.76,40.0 1167.76,370.2" stroke="blue" /></g><g fill="black" font-size="20" id="text"><text dominant-baseline="hanging" text-anchor="middle" x="108.58000000000001" y="309.24">A-04-X-L</text><text dominant-baseline="auto" text-anchor="middle" x="230.50000000000003" y="309.24">A-04-X-R</text><text dominant-baseline="hanging" text-anchor="middle" x="108.58000000000001" y="177.16">A-04-Y-L</text><text dominant-baseline="auto" text-anchor="middle" x="230.50000000000003" y="177.16">A-04-Y-R</text><text dominant-baseline="hanging" text-anchor="middle" x="108.58000000000001" y="73.02000000000001">A-04-Z-L</text><text dominant-baseline="auto" text-anchor="middle" x="230.50000000000003" y="73.02000000000001">A-04-Z-R</text><text dominant-baseline="hanging" text-anchor="middle" x="360.04" y="309.24">A-03-X-L</text><text dominant-baseline="auto" text-anchor="middle" x="481.9600000000001" y="309.24">A-03-X-R</text><text dominant-baseline="hanging" text-anchor="middle" x="360.04" y="177.16">A-03-Y-L</text><text dominant-baseline="auto" text-anchor="middle" x="481.9600000000001" y="177.16">A-03-Y-R</text><text dominant-baseline="hanging" text-anchor="middle" x="360.04" y="73.02000000000001">A-03-Z-L</text><text dominant-baseline="auto" text-anchor="middle" x="481.9600000000001" y="73.02000000000001">A-03-Z-R</text><text dominant-baseline="hanging" text-anchor="middle" x="641.98" y="123.82000000000001">A-02-Y-L</text><text dominant-baseline="auto" text-anchor="middle" x="824.86" y="123.82000000000001">A-02-Y-R</text><text dominant-baseline="hanging" text-anchor="middle" x="641.98" y="52.700000000000024">A-02-Z-L</text><text dominant-baseline="auto" text-anchor="middle" x="824.86" y="52.700000000000024">A-02-Z-R</text><text dominant-baseline="hanging" text-anchor="middle" x="984.88" y="309.24">A-01-X-L</text><text dominant-baseline="auto" text-anchor="middle" x="1106.8000000000002" y="309.24">A-01-X-R</text><text dominant-baseline="hanging" text-anchor="middle" x="984.88" y="177.16">A-01-Y-L</text><text dominant-baseline="auto" text-anchor="middle" x="1106.8000000000002" y="177.16">A-01-Y-R</text><text dominant-baseline="hanging" text-anchor="middle" x="984.88" y="73.02000000000001">A-01-Z-L</text><text dominant-baseline="auto" text-anchor="middle" x="1106.8000000000002" y="73.02000000000001">A-01-Z-R</text></g></svg>