<?xml version="1.0" encoding="utf-8" ?>
<svg baseProfile="full" height="410px" version="1.1" width="339px" xmlns="http://www.w3.org/2000/svg" xmlns:ev="http://www.w3.org/2001/xml-events" xmlns:xlink="http://www.w3.org/1999/xlink"><defs /><g id="shapes" stroke-width="0"><polygon fill="blue" points="40.0,370.2 47.62,370.2 47.62,40.0 40.0,40.0 40.0,370.2" stroke="blue" /><polygon fill="honeydew" points="47.62,370.2 169.54000000000002,370.2 169.54000000000002,248.27999999999997 47.62,248.27999999999997 47.62,370.2" stroke="honeydew" /><polygon fill="cornsilk" points="169.54000000000002,370.2 291.46000000000004,370.2 291.46000000000004,248.27999999999997 169.54000000000002,248.27999999999997 169.54000000000002,370.2" stroke="cornsilk" /><polygon fill="tomato" points="47.62,248.27999999999997 291.46000000000004,248.27999999999997 291.46000000000004,238.12 47.62,238.12 47.62,248.27999999999997" stroke="tomato" /><polygon fill="honeydew" points="47.62,238.12 169.54000000000002,238.12 169.54000000000002,116.2 47.62,116.2 47.62,238.12" stroke="honeydew" /><polygon fill="cornsilk" points="169.54000000000002,238.12 291.46000000000004,238.12 291.46000000000004,116.2 169.54000000000002,116.2 169.54000000000002,238.12" stroke="cornsilk" /><polygon fill="tomato" points="47.62,116.2 291.46000000000004,116.2 291.46000000000004,106.04 47.62,106.04 47.62,116.2" stroke="tomato" /><polygon fill="honeydew" points="47.62,106.04 169.54000000000002,106.04 169.54000000000002,40.0 47.62,40.0 47.62,106.04" stroke="honeydew" /><polygon fill="cornsilk" points="169.54000000000002,106.04 291.46000000000004,106.04 291.46000000000004,40.0 169.54000000000002,40.0 169.54000000000002,106.04" stroke="cornsilk" /><polygon fill="blue" points="291.46000000000004,370.2 299.08000000000004,370.2 299.08000000000004,40.0 291.46000000000004,40.0 291.46000000000004,370.2" stroke="blue" /></g><g fill="black" font-size="20" id="text"><text dominant-baseline="hanging" text-anchor="middle" x="108.58000000000001" y="309.24">B-01-X-L</text><text dominant-baseline="auto" text-anchor="middle" x="230.50000000000003" y="309.24">B-01-X-R</text><text dominant-baseline="hanging" text-anchor="middle" x="108.58000000000001" y="177.16">B-01-Y-L</text><text dominant-baseline="auto" text-anchor="middle" x="230.50000000000003" y="177.16">B-01-Y-R</text><text dominant-baseline="hanging" text-anchor="middle" x="108.58000000000001" y="73.02000000000001">B-01-Z-L</text><text dominant-baseline="auto" text-anchor="middle" x="230.50000000000003" y="73.02000000000001">B-01-Z-R</text></g></svg>