<?xml version="1.0" encoding="utf-8" ?>
<svg baseProfile="full" height="1335px" version="1.1" width="614px" xmlns="http://www.w3.org/2000/svg" xmlns:ev="http://www.w3.org/2001/xml-events" xmlns:xlink="http://www.w3.org/1999/xlink"><defs /><g fill="peachpuff" id="shapes"><polygon fill="blue" points="392.1,100.0 392.1,359.08 514.02,359.08 514.02,100.0 392.1,100.0" stroke="blue" /><polygon fill="lightyellow" points="392.1,107.62 392.1,351.46 514.02,351.46 514.02,107.62 392.1,107.62" stroke="lightyellow" /><line stroke="tomato" stroke-width="3" x1="392.1" x2="392.1" y1="100.0" y2="359.08" /><line stroke="blue" stroke-width="3" x1="514.02" x2="514.02" y1="100.0" y2="359.08" /><circle cx="392.1" cy="100.0" r="40.0" stroke="tomato" stroke-width="3" /><polygon fill="blue" points="221.92000000000002,1235.3799999999999 221.92000000000002,100.0 100.0,100.0 100.0,1235.3799999999999 221.92000000000002,1235.3799999999999" stroke="blue" /><polygon fill="lightyellow" points="221.92000000000002,1227.76 221.92000000000002,983.92 100.0,983.92 100.0,1227.76 221.92000000000002,1227.76" stroke="lightyellow" /><polygon fill="lightyellow" points="221.92000000000002,976.3 221.92000000000002,732.4599999999999 100.0,732.4599999999999 100.0,976.3 221.92000000000002,976.3" stroke="lightyellow" /><polygon fill="lightyellow" points="221.92000000000002,724.8399999999999 221.92000000000002,359.08 100.0,359.08 100.0,724.8399999999999 221.92000000000002,724.8399999999999" stroke="lightyellow" /><polygon fill="lightyellow" points="221.92000000000002,351.46 221.92000000000002,107.62 100.0,107.62 100.0,351.46 221.92000000000002,351.46" stroke="lightyellow" /><line stroke="tomato" stroke-width="3" x1="221.92000000000002" x2="221.92000000000002" y1="1235.3799999999999" y2="100.0" /><line stroke="blue" stroke-width="3" x1="100.0" x2="100.0" y1="1235.3799999999999" y2="100.0" /><circle cx="221.92000000000002" cy="100.0" r="40.0" stroke="tomato" stroke-width="3" /></g><g fill="black" font-size="24" id="text"><text dominant-baseline="central" text-anchor="middle" x="453.06" y="229.54000000000008">1</text><text dominant-baseline="central" text-anchor="middle" x="392.1" y="100.0">B</text><text dominant-baseline="central" text-anchor="middle" x="160.95999999999998" y="1105.8400000000001">4</text><text dominant-baseline="central" text-anchor="middle" x="160.95999999999998" y="854.3799999999999">3</text><text dominant-baseline="central" text-anchor="middle" x="160.95999999999998" y="541.9599999999999">2</text><text dominant-baseline="central" text-anchor="middle" x="160.96" y="229.5399999999999">1</text><text dominant-baseline="central" text-anchor="middle" x="221.92000000000002" y="100.0">A</text></g></svg>